<?xml version="1.0" standalone="no"?>
<!DOCTYPE svg PUBLIC "-//W3C//DTD SVG 20010904//EN"
 "http://www.w3.org/TR/2001/REC-SVG-20010904/DTD/svg10.dtd">
<svg version="1.0" xmlns="http://www.w3.org/2000/svg"
 width="215.000000pt" height="215.000000pt" viewBox="0 0 215.000000 215.000000"
 preserveAspectRatio="xMidYMid meet">
<metadata>
Created by potrace 1.11, written by Peter Selinger 2001-2013
</metadata>
<g transform="translate(0.000000,215.000000) scale(0.100000,-0.100000)"
fill="#000000" stroke="none">
<path d="M648 1754 c-189 -44 -343 -217 -408 -457 -26 -93 -32 -254 -15 -339
28 -133 116 -252 224 -305 43 -21 73 -28 141 -31 100 -5 174 12 257 59 29 16
55 29 57 29 6 0 143 -216 210 -330 34 -59 57 -89 60 -80 3 8 30 85 60 170 258
738 397 991 683 1242 l42 37 -37 8 c-20 4 -80 8 -132 8 -182 -1 -251 -64 -404
-365 -35 -69 -76 -154 -91 -190 -15 -36 -35 -83 -45 -106 -11 -22 -39 -100
-64 -173 -25 -73 -48 -137 -52 -142 -5 -8 -74 93 -74 108 0 2 11 28 24 58 45
97 58 163 62 311 3 108 0 153 -12 195 -40 136 -126 240 -234 280 -68 26 -175
31 -252 13z m207 -149 c105 -51 146 -144 140 -320 -2 -78 -10 -131 -25 -180
-12 -38 -23 -71 -25 -73 -1 -1 -19 5 -40 14 -53 22 -125 20 -172 -5 -73 -38
-73 -33 5 -116 40 -42 72 -81 72 -86 0 -5 -18 -20 -39 -35 -132 -87 -284 -55
-362 76 -47 79 -55 240 -18 385 23 90 82 201 141 265 84 94 221 125 323 75z"/>
</g>
</svg>
